<svg width="1150" height="1080" viewBox="0 0 1150 1080" fill="none" xmlns="http://www.w3.org/2000/svg">
<rect width="1150" height="1080" fill="#1E1E1E"/>
<rect width="1150" height="1080" fill="url(#paint0_linear_0_1)"/>
<path fill-rule="evenodd" clip-rule="evenodd" d="M206.74 637.486C138.243 624.834 67.7443 628.255 0.794556 647.481L1.18915 648.855C67.9262 629.69 138.201 626.28 206.48 638.892C244.77 645.965 281.845 657.968 316.812 674.508C284.536 671.859 251.931 672.69 219.561 677.077C139.459 687.934 63.7607 720.167 0.42041 770.388L1.31506 771.516C64.4527 721.456 139.909 689.326 219.755 678.504C253.292 673.959 287.084 673.243 320.496 676.272C346.542 688.884 371.389 704.027 394.665 721.537C450.152 763.278 495.191 817.331 526.236 879.438C557.281 941.546 573.484 1010.01 573.57 1079.45L575 1079.44C574.914 1009.79 558.659 941.105 527.515 878.799C496.371 816.494 451.188 762.269 395.525 720.394C373.194 703.595 349.421 688.968 324.534 676.656C369.281 681.121 413.302 692.309 455.072 710.016C529.257 741.464 593.601 792.315 641.343 857.224C689.085 922.132 718.462 998.703 726.386 1078.89L727.819 1078.75C719.869 998.304 690.398 921.487 642.503 856.37C594.608 791.253 530.057 740.24 455.634 708.69C412.543 690.423 367.063 679.071 320.858 674.859C284.777 657.416 246.408 644.813 206.74 637.486Z" fill="#00D1FF" fill-opacity="0.4"/>
<defs>
<linearGradient id="paint0_linear_0_1" x1="575" y1="0" x2="575" y2="1080" gradientUnits="userSpaceOnUse">
<stop stop-color="#074D80"/>
<stop stop-color="#181EA8"/>
<stop offset="0.0001" stop-color="#0D79DC"/>
<stop offset="1" stop-color="#010558"/>
</linearGradient>
</defs>
</svg>
